<svg width="242" height="74" fill="none" xmlns="http://www.w3.org/2000/svg"><path d="m139 3 11 35c0 2-1 4-3 4h-7c-2 0-4-2-5-4L124 4c0-2 1-4 3-4h7c2 0 4 1 5 3Z" fill="#50CD89"/><path d="m125 28-8-26-3-2c-2 0-4 2-4 4l-1 18v3l5 14c0 2 1 3 3 3h4c1 0 2-1 2-3l2-5v-6Z" fill="#fff"/><path d="m125 28-8-26-3-2c-2 0-4 2-4 4l-1 18v3l5 14c0 2 1 3 3 3h4c1 0 2-1 2-3l2-5v-6Z" fill="url(#a)"/><path d="m125 28-8-26-3-2c-2 0-4 2-4 4l-1 18v3l5 14c0 2 1 3 3 3h4c1 0 2-1 2-3l2-5v-6Z" stroke="#000"/><path d="M108 0h7c2 0 3 2 2 4l-10 34c-1 2-3 4-5 4h-6c-2 0-4-2-3-4l10-34c1-3 3-4 5-4Z" fill="#50CD89"/><g clip-path="url(#b)"><path d="M62 72h3l1-6v-3l1 3 1 4h3l2-4 1-3v9h4l-1-15h-4l-2 7-1 2-1-2-2-7h-4l-1 15Zm20 0h10v-3h-6v-3h4v-3h-4v-3h6v-3H82v15Zm16 0h4V60h4v-3H93v3h5v12Zm11 0h4v-5h1l3 5h4l-3-5v-1l2-4c0-2-1-4-3-4l-3-1h-5v15Zm4-8v-4h1c2 0 2 1 2 2s0 2-2 2h-1Zm10 1c0 4 3 8 8 8s8-4 8-8c0-5-3-8-8-8s-8 3-8 8Zm4 0c0-3 2-5 4-5s4 2 4 5c0 2-2 4-4 4s-4-2-4-4Zm15 7h4v-9l1 2 4 7h4V57h-4v7l1 3-2-3-4-7h-4v15Zm17 0h4V57h-4v15Zm7-7c0 4 4 8 8 8s7-3 7-3l-2-3-4 2c-3 0-5-2-5-4 0-3 2-5 5-5 2 0 3 2 3 2l2-3s-2-2-6-2-8 3-8 8Z" fill="#fff"/></g><defs><linearGradient id="a" x1="111.3" y1="23" x2="120.1" y2="25.8" gradientUnits="userSpaceOnUse"><stop stop-color="#18175A" stop-opacity=".4"/><stop offset=".9" stop-color="#65719B" stop-opacity="0"/></linearGradient><clipPath id="b"><path fill="#fff" d="M61 57h120v16H61z"/></clipPath></defs></svg>